<svg xmlns="http://www.w3.org/2000/svg" viewBox="0 0 260 290" fill="none" role="img" aria-label="JCMP Service">
  <defs>
    <linearGradient id="flame" x1="70" y1="10" x2="150" y2="160" gradientUnits="userSpaceOnUse">
      <stop offset="0%" stop-color="#FF9A4A"/>
      <stop offset="40%" stop-color="#F24B18"/>
      <stop offset="100%" stop-color="#C0280E"/>
    </linearGradient>
    <linearGradient id="drop" x1="120" y1="70" x2="175" y2="155" gradientUnits="userSpaceOnUse">
      <stop offset="0%" stop-color="#6EC4F0"/>
      <stop offset="50%" stop-color="#1F7FBE"/>
      <stop offset="100%" stop-color="#0B4A82"/>
    </linearGradient>
    <linearGradient id="steel" x1="60" y1="60" x2="190" y2="170" gradientUnits="userSpaceOnUse">
      <stop offset="0%" stop-color="#6B7380"/>
      <stop offset="100%" stop-color="#2C333D"/>
    </linearGradient>
  </defs>

  <!-- Icône centrée -->
  <g transform="translate(20, 8)">
    <!-- Flamme -->
    <path fill="url(#flame)" d="
      M78 145
      C62 105, 74 72, 98 42
      C96 68, 104 86, 118 98
      C124 58, 148 28, 168 8
      C178 48, 176 92, 156 124
      C142 146, 118 158, 94 154
      C84 152, 78 148, 78 145 Z
    "/>

    <!-- Clé à molette (diagonale) -->
    <g transform="translate(28, 28) rotate(-36 90 90)">
      <path fill="url(#steel)" d="
        M78 48
        C78 28, 94 14, 114 14
        C126 14, 136 20, 142 28
        L128 42
        C124 36, 120 34, 114 34
        C104 34, 96 42, 96 52
        V62 H78 V48 Z
      "/>
      <path fill="url(#steel)" d="
        M78 68 H112
        C128 68, 140 80, 140 96
        V102
        C140 112, 134 120, 124 126
        L104 140 H78 V68 Z
      "/>
      <rect x="86" y="72" width="24" height="100" rx="8" fill="url(#steel)"/>
      <circle cx="105" cy="100" r="7" fill="#1A2028"/>
      <rect x="92" y="164" width="12" height="16" rx="3" fill="#3A4350"/>
      <rect x="89" y="178" width="18" height="8" rx="3" fill="#4A5360"/>
    </g>

    <!-- Goutte d'eau (devant) -->
    <path fill="url(#drop)" d="
      M128 58
      C152 96, 172 120, 172 146
      C172 174, 150 194, 124 194
      C98 194, 78 174, 78 146
      C78 120, 100 92, 128 58 Z
    "/>
    <path fill="#FFFFFF" opacity="0.5" d="
      M114 96
      C118 80, 128 64, 136 52
      C142 70, 142 88, 136 104
      C132 114, 122 114, 114 96 Z
    "/>
    <ellipse cx="146" cy="138" rx="9" ry="13" fill="#B9E4FA" opacity="0.45"/>
  </g>

  <!-- Texte -->
  <text x="130" y="236" text-anchor="middle"
    font-family="Arial Black, Segoe UI, Arial, sans-serif"
    font-size="46" font-weight="900" fill="#2A3442" letter-spacing="2.5">JCMP</text>

  <g fill="#2A3442">
    <rect x="48" y="254" width="28" height="2.4" rx="1.2"/>
    <text x="130" y="262" text-anchor="middle"
      font-family="Segoe UI, Arial, sans-serif"
      font-size="15" font-weight="700" letter-spacing="4.5">SERVICE</text>
    <rect x="184" y="254" width="28" height="2.4" rx="1.2"/>
  </g>
</svg>
